<svg xmlns="http://www.w3.org/2000/svg" version="1.1" xmlns:xlink="http://www.w3.org/1999/xlink" width="24" height="24" x="0" y="0" viewBox="0 0 24 24" style="enable-background:new 0 0 512 512" xml:space="preserve" class=""><g><path d="M5 10a2 2 0 1 1 2-2 2 2 0 0 1-2 2zm9-2a2 2 0 1 0-2 2 2 2 0 0 0 2-2zm7 0a2 2 0 1 0-2 2 2 2 0 0 0 2-2zM7 16a2 2 0 1 0-2 2 2 2 0 0 0 2-2zm7 0a2 2 0 1 0-2 2 2 2 0 0 0 2-2zm7 0a2 2 0 1 0-2 2 2 2 0 0 0 2-2z" fill="#6D6D75" opacity="1" data-original="#6D6D75" class=""></path></g></svg>
