<svg xmlns="http://www.w3.org/2000/svg" version="1.1" xmlns:xlink="http://www.w3.org/1999/xlink" width="512" height="512" x="0" y="0" viewBox="0 0 512 512" style="enable-background:new 0 0 512 512" xml:space="preserve" class=""><g><path d="M167.2 367.2v-39.9l1.5-1.5c12.9-12.3 24.4-23.2 34.3-32.1l34.2-31.2c9.3-8.2 16.8-16.1 22.1-23.4 5-6.7 7.5-15.2 7.5-25.4.1-6.3-2.4-12.4-7-16.8-4.7-4.7-11.3-7-20.2-7-6.9 0-13.6 2-19.2 5.9-6 4-10.2 8.7-12.6 14l-2 4.5-40.9-19.4 1.9-4.3c5.8-13.5 15.3-25.1 27.5-33.3 12.3-8.4 27.6-12.7 45.4-12.7 20.9 0 38.2 6.6 51.5 19.5s20 29.3 20 48.6c0 15.5-3.7 29.1-10.9 40.2-6.9 10.7-16.5 21.9-28.5 33.3-7.3 7.3-15.8 15.2-25.1 23.4-6.2 5.5-12.1 10.6-17.8 15.5h85.7V367H167.2zM437.1 367.2c-20.7 0-37.5-4.9-49.8-14.5-12.4-9.6-21-22.6-25.7-38.8l-1.3-4.4 38.5-14.3 1.7 4.7c2.7 8.2 8 15.4 15.1 20.4 7.1 5.1 14.2 7.5 21.6 7.5 9.5 0 17.1-2.3 22.6-6.9 5.3-4.4 7.9-10.8 7.9-19.4 0-9-3.5-15.7-10.9-20.4-7.9-5.1-17.1-7.7-26.5-7.7h-17.6v-42.7h16.7c9.9 0 17.8-1.5 23.5-4.5 4.8-2.5 7.1-7.4 7.1-15.1 0-7-2.1-12.3-6.4-16.2-4.5-4-10.1-5.9-17.4-5.9-5.8 0-11.5 1.6-16.4 4.8-5.6 3.5-10.4 8.1-14.2 13.5l-2.5 3.4-36.9-19.5 2.5-4.4c7.7-13.6 17.7-24.2 29.6-31.3 11.4-7 24.6-10.8 38-10.8 19.1 0 35.3 5.3 48.2 15.9 13.2 10.8 19.9 25.5 19.9 43.9 0 13.3-3 24.4-8.9 32.8-3.7 5.2-8.5 9.6-14.1 12.8 7.3 2.9 13.6 7.7 18.5 13.8 8 9.8 12.1 22.5 12.1 37.7 0 22.3-7.3 39.1-21.8 49.9-14 10.4-31.9 15.7-53.1 15.7zM55 367.2V204.4l-32 21.3-23-36.1 66.8-44.8h33.4v222.4z" opacity="1" data-original="#000000" class="" fill="currentColor"></path></g></svg>
